<mxfile host="65bd71144e" pages="3" scale="1" border="5">
    <diagram name="callback" id="BmvgWnuBYKPFj5-TiQoX">
        <mxGraphModel dx="1676" dy="1167" grid="1" gridSize="10" guides="1" tooltips="1" connect="1" arrows="1" fold="1" page="0" pageScale="1" pageWidth="827" pageHeight="1169" math="0" shadow="0">
            <root>
                <mxCell id="0cUlMfc03Zv8HW3oaQ7h-0"/>
                <mxCell id="0cUlMfc03Zv8HW3oaQ7h-1" value="Update circle" style="locked=1;" parent="0cUlMfc03Zv8HW3oaQ7h-0"/>
                <mxCell id="0cUlMfc03Zv8HW3oaQ7h-2" value="" style="ellipse;whiteSpace=wrap;html=1;aspect=fixed;fillColor=none;" parent="0cUlMfc03Zv8HW3oaQ7h-1" vertex="1">
                    <mxGeometry x="140" y="710" width="170" height="170" as="geometry"/>
                </mxCell>
                <mxCell id="0cUlMfc03Zv8HW3oaQ7h-3" style="" parent="0cUlMfc03Zv8HW3oaQ7h-0"/>
                <mxCell id="0cUlMfc03Zv8HW3oaQ7h-4" value="useEffect() Hook" style="text;strokeColor=none;fillColor=none;html=1;fontSize=34;fontStyle=1;verticalAlign=middle;align=center;fontColor=#333333;" parent="0cUlMfc03Zv8HW3oaQ7h-3" vertex="1">
                    <mxGeometry x="10" y="370" width="520" height="70" as="geometry"/>
                </mxCell>
                <mxCell id="0cUlMfc03Zv8HW3oaQ7h-6" value="&amp;lt;Component /&amp;gt;" style="html=1;fillColor=#dae8fc;strokeColor=#6c8ebf;" parent="0cUlMfc03Zv8HW3oaQ7h-3" vertex="1">
                    <mxGeometry x="40" y="470" width="160" height="50" as="geometry"/>
                </mxCell>
                <mxCell id="0cUlMfc03Zv8HW3oaQ7h-7" value="" style="endArrow=classic;html=1;fontSize=14;exitX=0.5;exitY=1;exitDx=0;exitDy=0;entryX=0.5;entryY=0;entryDx=0;entryDy=0;" parent="0cUlMfc03Zv8HW3oaQ7h-3" source="0cUlMfc03Zv8HW3oaQ7h-6" target="0cUlMfc03Zv8HW3oaQ7h-23" edge="1">
                    <mxGeometry width="50" height="50" relative="1" as="geometry">
                        <mxPoint x="120" y="520" as="sourcePoint"/>
                        <mxPoint x="160" y="540" as="targetPoint"/>
                    </mxGeometry>
                </mxCell>
                <mxCell id="0cUlMfc03Zv8HW3oaQ7h-8" value="" style="shape=ellipse;html=1;fontSize=14;strokeColor=#666666;fontColor=#333333;fillColor=#000000;" parent="0cUlMfc03Zv8HW3oaQ7h-3" vertex="1">
                    <mxGeometry x="115" y="1000" width="10" height="10" as="geometry"/>
                </mxCell>
                <mxCell id="0cUlMfc03Zv8HW3oaQ7h-9" value="End" style="text;html=1;strokeColor=none;fillColor=none;align=center;verticalAlign=middle;whiteSpace=wrap;rounded=0;fontSize=12;" parent="0cUlMfc03Zv8HW3oaQ7h-3" vertex="1">
                    <mxGeometry x="125" y="985" width="35" height="40" as="geometry"/>
                </mxCell>
                <mxCell id="0cUlMfc03Zv8HW3oaQ7h-10" value="" style="endArrow=classic;html=1;fontSize=14;entryX=0.5;entryY=0;entryDx=0;entryDy=0;exitX=0.5;exitY=1;exitDx=0;exitDy=0;" parent="0cUlMfc03Zv8HW3oaQ7h-3" source="0cUlMfc03Zv8HW3oaQ7h-26" target="0cUlMfc03Zv8HW3oaQ7h-8" edge="1">
                    <mxGeometry width="50" height="50" relative="1" as="geometry">
                        <mxPoint x="260" y="1000" as="sourcePoint"/>
                        <mxPoint x="130" y="600" as="targetPoint"/>
                    </mxGeometry>
                </mxCell>
                <mxCell id="0cUlMfc03Zv8HW3oaQ7h-11" value="" style="ellipse;whiteSpace=wrap;html=1;aspect=fixed;fillColor=#fff2cc;strokeColor=#d6b656;" parent="0cUlMfc03Zv8HW3oaQ7h-3" vertex="1">
                    <mxGeometry x="80" y="760" width="80" height="80" as="geometry"/>
                </mxCell>
                <mxCell id="0cUlMfc03Zv8HW3oaQ7h-12" value="Updated" style="text;html=1;strokeColor=none;fillColor=none;align=center;verticalAlign=middle;whiteSpace=wrap;rounded=0;fontSize=12;" parent="0cUlMfc03Zv8HW3oaQ7h-3" vertex="1">
                    <mxGeometry x="80" y="780" width="80" height="40" as="geometry"/>
                </mxCell>
                <mxCell id="0cUlMfc03Zv8HW3oaQ7h-19" value="" style="endArrow=classic;dashed=1;html=1;endFill=1;entryX=0;entryY=0.5;entryDx=0;entryDy=0;" parent="0cUlMfc03Zv8HW3oaQ7h-3" target="0cUlMfc03Zv8HW3oaQ7h-16" edge="1">
                    <mxGeometry width="50" height="50" relative="1" as="geometry">
                        <mxPoint x="120" y="655" as="sourcePoint"/>
                        <mxPoint x="380" y="500" as="targetPoint"/>
                    </mxGeometry>
                </mxCell>
                <mxCell id="0cUlMfc03Zv8HW3oaQ7h-20" value="" style="endArrow=classic;html=1;fontSize=14;entryX=0.5;entryY=0;entryDx=0;entryDy=0;exitX=0.5;exitY=1;exitDx=0;exitDy=0;" parent="0cUlMfc03Zv8HW3oaQ7h-3" source="0cUlMfc03Zv8HW3oaQ7h-23" target="0cUlMfc03Zv8HW3oaQ7h-11" edge="1">
                    <mxGeometry width="50" height="50" relative="1" as="geometry">
                        <mxPoint x="120" y="680" as="sourcePoint"/>
                        <mxPoint x="130" y="610" as="targetPoint"/>
                    </mxGeometry>
                </mxCell>
                <mxCell id="0cUlMfc03Zv8HW3oaQ7h-21" value="" style="endArrow=classic;html=1;fontSize=14;entryX=0.5;entryY=0;entryDx=0;entryDy=0;exitX=0.5;exitY=1;exitDx=0;exitDy=0;" parent="0cUlMfc03Zv8HW3oaQ7h-3" source="0cUlMfc03Zv8HW3oaQ7h-11" target="0cUlMfc03Zv8HW3oaQ7h-26" edge="1">
                    <mxGeometry width="50" height="50" relative="1" as="geometry">
                        <mxPoint x="410" y="850" as="sourcePoint"/>
                        <mxPoint x="130" y="770" as="targetPoint"/>
                    </mxGeometry>
                </mxCell>
                <mxCell id="0cUlMfc03Zv8HW3oaQ7h-22" value="" style="group" parent="0cUlMfc03Zv8HW3oaQ7h-3" vertex="1" connectable="0">
                    <mxGeometry x="80" y="560" width="80" height="80" as="geometry"/>
                </mxCell>
                <mxCell id="0cUlMfc03Zv8HW3oaQ7h-23" value="" style="ellipse;whiteSpace=wrap;html=1;aspect=fixed;fillColor=#e1d5e7;strokeColor=#9673a6;" parent="0cUlMfc03Zv8HW3oaQ7h-22" vertex="1">
                    <mxGeometry width="80" height="80" as="geometry"/>
                </mxCell>
                <mxCell id="0cUlMfc03Zv8HW3oaQ7h-24" value="Mounted" style="text;html=1;strokeColor=none;fillColor=none;align=center;verticalAlign=middle;whiteSpace=wrap;rounded=0;fontSize=12;" parent="0cUlMfc03Zv8HW3oaQ7h-22" vertex="1">
                    <mxGeometry y="20" width="80" height="40" as="geometry"/>
                </mxCell>
                <mxCell id="0cUlMfc03Zv8HW3oaQ7h-25" value="" style="group" parent="0cUlMfc03Zv8HW3oaQ7h-3" vertex="1" connectable="0">
                    <mxGeometry x="80" y="880" width="80" height="80" as="geometry"/>
                </mxCell>
                <mxCell id="0cUlMfc03Zv8HW3oaQ7h-26" value="" style="ellipse;whiteSpace=wrap;html=1;aspect=fixed;fillColor=#f8cecc;strokeColor=#b85450;" parent="0cUlMfc03Zv8HW3oaQ7h-25" vertex="1">
                    <mxGeometry width="80" height="80" as="geometry"/>
                </mxCell>
                <mxCell id="0cUlMfc03Zv8HW3oaQ7h-27" value="Unmounted" style="text;html=1;strokeColor=none;fillColor=none;align=center;verticalAlign=middle;whiteSpace=wrap;rounded=0;fontSize=12;" parent="0cUlMfc03Zv8HW3oaQ7h-25" vertex="1">
                    <mxGeometry y="20" width="80" height="40" as="geometry"/>
                </mxCell>
                <mxCell id="0cUlMfc03Zv8HW3oaQ7h-33" value="" style="group" parent="0cUlMfc03Zv8HW3oaQ7h-3" vertex="1" connectable="0">
                    <mxGeometry x="190" y="683" width="70" height="70" as="geometry"/>
                </mxCell>
                <mxCell id="0cUlMfc03Zv8HW3oaQ7h-38" value="" style="group" parent="0cUlMfc03Zv8HW3oaQ7h-3" vertex="1" connectable="0">
                    <mxGeometry x="330" y="840" width="101" height="30" as="geometry"/>
                </mxCell>
                <mxCell id="0cUlMfc03Zv8HW3oaQ7h-39" value="" style="rounded=1;whiteSpace=wrap;html=1;" parent="0cUlMfc03Zv8HW3oaQ7h-38" vertex="1">
                    <mxGeometry width="100" height="30" as="geometry"/>
                </mxCell>
                <mxCell id="0cUlMfc03Zv8HW3oaQ7h-40" value="callback()" style="text;html=1;strokeColor=none;fillColor=none;align=center;verticalAlign=middle;whiteSpace=wrap;rounded=0;fontSize=12;" parent="0cUlMfc03Zv8HW3oaQ7h-38" vertex="1">
                    <mxGeometry x="21" y="4" width="80" height="20" as="geometry"/>
                </mxCell>
                <mxCell id="0cUlMfc03Zv8HW3oaQ7h-41" value="" style="shape=image;verticalLabelPosition=bottom;labelBackgroundColor=#ffffff;verticalAlign=top;aspect=fixed;imageAspect=0;image=data:image/svg+xml,PHN2ZyB4bWxucz0iaHR0cDovL3d3dy53My5vcmcvMjAwMC9zdmciIHdpZHRoPSIyNCIgaGVpZ2h0PSIyMy45OTk5OTgwOTI2NTEzNjciIHZpZXdCb3g9Ii00Ljc2ODM3MTU4MjAzMTI1ZS03IC00Ljc2ODM3MTU4MjAzMTI1ZS03IDI0IDIzLjk5OTk5ODA5MjY1MTM2NyI+PHBhdGggZD0iTTI0IDEzLjYxNnYtMy4yMzJjLTEuNjUxLS41ODctMi42OTQtLjc1Mi0zLjIxOS0yLjAxOXYtLjAwMWMtLjUyNy0xLjI3MS4xLTIuMTM0Ljg0Ny0zLjcwN2wtMi4yODUtMi4yODVjLTEuNTYxLjc0Mi0yLjQzMyAxLjM3NS0zLjcwNy44NDdoLS4wMDFjLTEuMjY5LS41MjYtMS40MzUtMS41NzYtMi4wMTktMy4yMTloLTMuMjMyYy0uNTgyIDEuNjM1LS43NDkgMi42OTItMi4wMTkgMy4yMTloLS4wMDFjLTEuMjcxLjUyOC0yLjEzMi0uMDk4LTMuNzA3LS44NDdsLTIuMjg1IDIuMjg1Yy43NDUgMS41NjggMS4zNzUgMi40MzQuODQ3IDMuNzA3LS41MjcgMS4yNzEtMS41ODQgMS40MzgtMy4yMTkgMi4wMnYzLjIzMmMxLjYzMi41OCAyLjY5Mi43NDkgMy4yMTkgMi4wMTkuNTMgMS4yODItLjExNCAyLjE2Ni0uODQ3IDMuNzA3bDIuMjg1IDIuMjg2YzEuNTYyLS43NDMgMi40MzQtMS4zNzUgMy43MDctLjg0N2guMDAxYzEuMjcuNTI2IDEuNDM2IDEuNTc5IDIuMDE5IDMuMjE5aDMuMjMyYy41ODItMS42MzYuNzUtMi42OSAyLjAyNy0zLjIyMmguMDAxYzEuMjYyLS41MjQgMi4xMi4xMDEgMy42OTguODUxbDIuMjg1LTIuMjg2Yy0uNzQ0LTEuNTYzLTEuMzc1LTIuNDMzLS44NDgtMy43MDYuNTI3LTEuMjcxIDEuNTg4LTEuNDQgMy4yMjEtMi4wMjF6bS0xMiAyLjM4NGMtMi4yMDkgMC00LTEuNzkxLTQtNHMxLjc5MS00IDQtNCA0IDEuNzkxIDQgNC0xLjc5MSA0LTQgNHoiLz48L3N2Zz4=;" parent="0cUlMfc03Zv8HW3oaQ7h-38" vertex="1">
                    <mxGeometry x="14" y="6.5" width="17" height="17" as="geometry"/>
                </mxCell>
                <mxCell id="0cUlMfc03Zv8HW3oaQ7h-43" value="&lt;i&gt;deps&lt;/i&gt; updated?" style="text;html=1;strokeColor=none;fillColor=none;align=center;verticalAlign=middle;whiteSpace=wrap;rounded=0;" parent="0cUlMfc03Zv8HW3oaQ7h-3" vertex="1">
                    <mxGeometry x="206" y="704" width="40" height="20" as="geometry"/>
                </mxCell>
                <mxCell id="0cUlMfc03Zv8HW3oaQ7h-44" value="" style="rhombus;whiteSpace=wrap;html=1;" parent="0cUlMfc03Zv8HW3oaQ7h-3" vertex="1">
                    <mxGeometry x="190" y="683" width="70" height="70" as="geometry"/>
                </mxCell>
                <mxCell id="0cUlMfc03Zv8HW3oaQ7h-45" value="Yes" style="text;html=1;align=center;verticalAlign=middle;whiteSpace=wrap;rounded=0;fillColor=#ffffff;rotation=0;" parent="0cUlMfc03Zv8HW3oaQ7h-3" vertex="1">
                    <mxGeometry x="259" y="720" width="31" height="14.12" as="geometry"/>
                </mxCell>
                <mxCell id="0cUlMfc03Zv8HW3oaQ7h-46" value="" style="endArrow=classic;dashed=1;html=1;endFill=1;entryX=0;entryY=0.5;entryDx=0;entryDy=0;exitX=1;exitY=1;exitDx=0;exitDy=0;" parent="0cUlMfc03Zv8HW3oaQ7h-3" source="0cUlMfc03Zv8HW3oaQ7h-2" target="0cUlMfc03Zv8HW3oaQ7h-39" edge="1">
                    <mxGeometry width="50" height="50" relative="1" as="geometry">
                        <mxPoint x="295.10407640085623" y="744.8959235991435" as="sourcePoint"/>
                        <mxPoint x="346" y="745" as="targetPoint"/>
                    </mxGeometry>
                </mxCell>
                <mxCell id="0cUlMfc03Zv8HW3oaQ7h-47" value="&lt;i&gt;deps&lt;/i&gt; changed?" style="text;html=1;strokeColor=none;fillColor=none;align=center;verticalAlign=middle;whiteSpace=wrap;rounded=0;fontSize=12;" parent="0cUlMfc03Zv8HW3oaQ7h-3" vertex="1">
                    <mxGeometry x="196" y="692" width="60" height="40" as="geometry"/>
                </mxCell>
                <mxCell id="0cUlMfc03Zv8HW3oaQ7h-48" value="" style="endArrow=classic;html=1;fontSize=14;exitX=0.5;exitY=1;exitDx=0;exitDy=0;entryX=0.5;entryY=0;entryDx=0;entryDy=0;" parent="0cUlMfc03Zv8HW3oaQ7h-3" source="0cUlMfc03Zv8HW3oaQ7h-44" target="0cUlMfc03Zv8HW3oaQ7h-50" edge="1">
                    <mxGeometry width="50" height="50" relative="1" as="geometry">
                        <mxPoint x="130" y="650" as="sourcePoint"/>
                        <mxPoint x="440" y="810" as="targetPoint"/>
                    </mxGeometry>
                </mxCell>
                <mxCell id="0cUlMfc03Zv8HW3oaQ7h-49" value="No" style="text;html=1;strokeColor=none;align=center;verticalAlign=middle;whiteSpace=wrap;rounded=0;fillColor=#ffffff;" parent="0cUlMfc03Zv8HW3oaQ7h-3" vertex="1">
                    <mxGeometry x="212" y="756" width="25" height="14" as="geometry"/>
                </mxCell>
                <mxCell id="0cUlMfc03Zv8HW3oaQ7h-50" value="" style="shape=ellipse;html=1;fontSize=14;strokeColor=#666666;fontColor=#333333;fillColor=#000000;" parent="0cUlMfc03Zv8HW3oaQ7h-3" vertex="1">
                    <mxGeometry x="220" y="805" width="10" height="10" as="geometry"/>
                </mxCell>
                <mxCell id="0cUlMfc03Zv8HW3oaQ7h-53" value="" style="shape=image;verticalLabelPosition=bottom;labelBackgroundColor=#ffffff;verticalAlign=top;aspect=fixed;imageAspect=0;image=data:image/svg+xml,PHN2ZyB4bWxucz0iaHR0cDovL3d3dy53My5vcmcvMjAwMC9zdmciIHZpZXdCb3g9IjIzLjk5OTU4MDM4MzMwMDc4IDEyLjAwODgzNzY5OTg5MDEzNyA0OC4wMDA1MDM1NDAwMzkwNiA3MS45OTE1MzkwMDE0NjQ4NCIgd2lkdGg9IjQ4LjAwMDUwMzU0MDAzOTA2IiBoZWlnaHQ9IjcxLjk5MTUzOTAwMTQ2NDg0Ij48dGl0bGUvPjxwYXRoIGQ9Ik02OS44NDM3LDQzLjM4NzYsMzMuODQyMiwxMy4zODYzYTYuMDAzNSw2LjAwMzUsMCwwLDAtNy42ODc4LDkuMjIzbDMwLjQ3LDI1LjM5LTMwLjQ3LDI1LjM5YTYuMDAzNSw2LjAwMzUsMCwwLDAsNy42ODc4LDkuMjIzMUw2OS44NDM3LDUyLjYxMDZhNi4wMDkxLDYuMDA5MSwwLDAsMCwwLTkuMjIzWiIvPjwvc3ZnPg==;rotation=-180;" parent="0cUlMfc03Zv8HW3oaQ7h-3" vertex="1">
                    <mxGeometry x="218" y="874" width="8" height="12" as="geometry"/>
                </mxCell>
                <mxCell id="0cUlMfc03Zv8HW3oaQ7h-54" value="" style="shape=image;verticalLabelPosition=bottom;labelBackgroundColor=#ffffff;verticalAlign=top;aspect=fixed;imageAspect=0;image=data:image/svg+xml,PHN2ZyB4bWxucz0iaHR0cDovL3d3dy53My5vcmcvMjAwMC9zdmciIHZpZXdCb3g9IjIzLjk5OTU4MDM4MzMwMDc4IDEyLjAwODgzNzY5OTg5MDEzNyA0OC4wMDA1MDM1NDAwMzkwNiA3MS45OTE1MzkwMDE0NjQ4NCIgd2lkdGg9IjQ4LjAwMDUwMzU0MDAzOTA2IiBoZWlnaHQ9IjcxLjk5MTUzOTAwMTQ2NDg0Ij48dGl0bGUvPjxwYXRoIGQ9Ik02OS44NDM3LDQzLjM4NzYsMzMuODQyMiwxMy4zODYzYTYuMDAzNSw2LjAwMzUsMCwwLDAtNy42ODc4LDkuMjIzbDMwLjQ3LDI1LjM5LTMwLjQ3LDI1LjM5YTYuMDAzNSw2LjAwMzUsMCwwLDAsNy42ODc4LDkuMjIzMUw2OS44NDM3LDUyLjYxMDZhNi4wMDkxLDYuMDA5MSwwLDAsMCwwLTkuMjIzWiIvPjwvc3ZnPg==;rotation=-45;" parent="0cUlMfc03Zv8HW3oaQ7h-3" vertex="1">
                    <mxGeometry x="160" y="730" width="8" height="12" as="geometry"/>
                </mxCell>
                <mxCell id="0cUlMfc03Zv8HW3oaQ7h-15" value="" style="group" parent="0cUlMfc03Zv8HW3oaQ7h-3" vertex="1" connectable="0">
                    <mxGeometry x="330" y="640" width="101" height="30" as="geometry"/>
                </mxCell>
                <mxCell id="0cUlMfc03Zv8HW3oaQ7h-16" value="" style="rounded=1;whiteSpace=wrap;html=1;" parent="0cUlMfc03Zv8HW3oaQ7h-15" vertex="1">
                    <mxGeometry width="100" height="30" as="geometry"/>
                </mxCell>
                <mxCell id="0cUlMfc03Zv8HW3oaQ7h-17" value="callback()" style="text;html=1;strokeColor=none;fillColor=none;align=center;verticalAlign=middle;whiteSpace=wrap;rounded=0;fontSize=12;" parent="0cUlMfc03Zv8HW3oaQ7h-15" vertex="1">
                    <mxGeometry x="21" y="4" width="80" height="20" as="geometry"/>
                </mxCell>
                <mxCell id="0cUlMfc03Zv8HW3oaQ7h-18" value="" style="shape=image;verticalLabelPosition=bottom;labelBackgroundColor=#ffffff;verticalAlign=top;aspect=fixed;imageAspect=0;image=data:image/svg+xml,PHN2ZyB4bWxucz0iaHR0cDovL3d3dy53My5vcmcvMjAwMC9zdmciIHdpZHRoPSIyNCIgaGVpZ2h0PSIyMy45OTk5OTgwOTI2NTEzNjciIHZpZXdCb3g9Ii00Ljc2ODM3MTU4MjAzMTI1ZS03IC00Ljc2ODM3MTU4MjAzMTI1ZS03IDI0IDIzLjk5OTk5ODA5MjY1MTM2NyI+PHBhdGggZD0iTTI0IDEzLjYxNnYtMy4yMzJjLTEuNjUxLS41ODctMi42OTQtLjc1Mi0zLjIxOS0yLjAxOXYtLjAwMWMtLjUyNy0xLjI3MS4xLTIuMTM0Ljg0Ny0zLjcwN2wtMi4yODUtMi4yODVjLTEuNTYxLjc0Mi0yLjQzMyAxLjM3NS0zLjcwNy44NDdoLS4wMDFjLTEuMjY5LS41MjYtMS40MzUtMS41NzYtMi4wMTktMy4yMTloLTMuMjMyYy0uNTgyIDEuNjM1LS43NDkgMi42OTItMi4wMTkgMy4yMTloLS4wMDFjLTEuMjcxLjUyOC0yLjEzMi0uMDk4LTMuNzA3LS44NDdsLTIuMjg1IDIuMjg1Yy43NDUgMS41NjggMS4zNzUgMi40MzQuODQ3IDMuNzA3LS41MjcgMS4yNzEtMS41ODQgMS40MzgtMy4yMTkgMi4wMnYzLjIzMmMxLjYzMi41OCAyLjY5Mi43NDkgMy4yMTkgMi4wMTkuNTMgMS4yODItLjExNCAyLjE2Ni0uODQ3IDMuNzA3bDIuMjg1IDIuMjg2YzEuNTYyLS43NDMgMi40MzQtMS4zNzUgMy43MDctLjg0N2guMDAxYzEuMjcuNTI2IDEuNDM2IDEuNTc5IDIuMDE5IDMuMjE5aDMuMjMyYy41ODItMS42MzYuNzUtMi42OSAyLjAyNy0zLjIyMmguMDAxYzEuMjYyLS41MjQgMi4xMi4xMDEgMy42OTguODUxbDIuMjg1LTIuMjg2Yy0uNzQ0LTEuNTYzLTEuMzc1LTIuNDMzLS44NDgtMy43MDYuNTI3LTEuMjcxIDEuNTg4LTEuNDQgMy4yMjEtMi4wMjF6bS0xMiAyLjM4NGMtMi4yMDkgMC00LTEuNzkxLTQtNHMxLjc5MS00IDQtNCA0IDEuNzkxIDQgNC0xLjc5MSA0LTQgNHoiLz48L3N2Zz4=;" parent="0cUlMfc03Zv8HW3oaQ7h-15" vertex="1">
                    <mxGeometry x="14" y="6.5" width="17" height="17" as="geometry"/>
                </mxCell>
                <mxCell id="0cUlMfc03Zv8HW3oaQ7h-51" value="" style="ellipse;whiteSpace=wrap;html=1;fillColor=#d5e8d4;strokeColor=#82b366;" parent="0cUlMfc03Zv8HW3oaQ7h-3" vertex="1">
                    <mxGeometry x="260" y="750" width="120" height="51.5" as="geometry"/>
                </mxCell>
                <mxCell id="0cUlMfc03Zv8HW3oaQ7h-52" value="Re-render and commit changes to DOM" style="text;html=1;strokeColor=none;fillColor=none;align=center;verticalAlign=middle;whiteSpace=wrap;rounded=0;fontSize=10;" parent="0cUlMfc03Zv8HW3oaQ7h-3" vertex="1">
                    <mxGeometry x="281" y="761" width="90" height="30" as="geometry"/>
                </mxCell>
                <mxCell id="0cUlMfc03Zv8HW3oaQ7h-55" value="" style="verticalLabelPosition=bottom;verticalAlign=top;html=1;shape=mxgraph.basic.flash;fontSize=8;fillColor=#ffffff;" parent="0cUlMfc03Zv8HW3oaQ7h-3" vertex="1">
                    <mxGeometry x="271.5" y="765" width="10" height="20" as="geometry"/>
                </mxCell>
            </root>
        </mxGraphModel>
    </diagram>
    <diagram id="idhxigilsuWetFB2cpPl" name="callback and cleanup">
        <mxGraphModel dx="1676" dy="1167" grid="1" gridSize="10" guides="1" tooltips="1" connect="1" arrows="1" fold="1" page="0" pageScale="1" pageWidth="827" pageHeight="1169" math="0" shadow="0">
            <root>
                <mxCell id="0"/>
                <mxCell id="20" value="Update circle" style="locked=1;" parent="0"/>
                <mxCell id="48" value="" style="ellipse;whiteSpace=wrap;html=1;aspect=fixed;fillColor=none;" parent="20" vertex="1">
                    <mxGeometry x="140" y="710" width="170" height="170" as="geometry"/>
                </mxCell>
                <mxCell id="1" style="" parent="0"/>
                <mxCell id="N8z0Ye5YrI288PrtkeDU-3" value="useEffect() Hook" style="text;strokeColor=none;fillColor=none;html=1;fontSize=34;fontStyle=1;verticalAlign=middle;align=center;fontColor=#333333;" parent="1" vertex="1">
                    <mxGeometry y="330" width="520" height="70" as="geometry"/>
                </mxCell>
                <mxCell id="LU_YdODJftrCfWnr0jXz-36" value="&amp;lt;Component /&amp;gt;" style="html=1;fillColor=#dae8fc;strokeColor=#6c8ebf;" parent="1" vertex="1">
                    <mxGeometry x="40" y="470" width="160" height="50" as="geometry"/>
                </mxCell>
                <mxCell id="LU_YdODJftrCfWnr0jXz-40" value="" style="endArrow=classic;html=1;fontSize=14;exitX=0.5;exitY=1;exitDx=0;exitDy=0;entryX=0.5;entryY=0;entryDx=0;entryDy=0;" parent="1" source="LU_YdODJftrCfWnr0jXz-36" target="LU_YdODJftrCfWnr0jXz-38" edge="1">
                    <mxGeometry width="50" height="50" relative="1" as="geometry">
                        <mxPoint x="120" y="520" as="sourcePoint"/>
                        <mxPoint x="160" y="540" as="targetPoint"/>
                    </mxGeometry>
                </mxCell>
                <mxCell id="LU_YdODJftrCfWnr0jXz-43" value="" style="shape=ellipse;html=1;fontSize=14;strokeColor=#666666;fontColor=#333333;fillColor=#000000;" parent="1" vertex="1">
                    <mxGeometry x="115" y="1000" width="10" height="10" as="geometry"/>
                </mxCell>
                <mxCell id="2" value="End" style="text;html=1;strokeColor=none;fillColor=none;align=center;verticalAlign=middle;whiteSpace=wrap;rounded=0;fontSize=12;" parent="1" vertex="1">
                    <mxGeometry x="125" y="985" width="35" height="40" as="geometry"/>
                </mxCell>
                <mxCell id="3" value="" style="endArrow=classic;html=1;fontSize=14;entryX=0.5;entryY=0;entryDx=0;entryDy=0;exitX=0.5;exitY=1;exitDx=0;exitDy=0;" parent="1" source="LU_YdODJftrCfWnr0jXz-41" target="LU_YdODJftrCfWnr0jXz-43" edge="1">
                    <mxGeometry width="50" height="50" relative="1" as="geometry">
                        <mxPoint x="260" y="1000" as="sourcePoint"/>
                        <mxPoint x="130" y="600" as="targetPoint"/>
                    </mxGeometry>
                </mxCell>
                <mxCell id="4" value="" style="ellipse;whiteSpace=wrap;html=1;aspect=fixed;fillColor=#fff2cc;strokeColor=#d6b656;" parent="1" vertex="1">
                    <mxGeometry x="80" y="760" width="80" height="80" as="geometry"/>
                </mxCell>
                <mxCell id="5" value="Updated" style="text;html=1;strokeColor=none;fillColor=none;align=center;verticalAlign=middle;whiteSpace=wrap;rounded=0;fontSize=12;" parent="1" vertex="1">
                    <mxGeometry x="80" y="780" width="80" height="40" as="geometry"/>
                </mxCell>
                <mxCell id="9" value="" style="endArrow=classic;dashed=1;html=1;endFill=1;entryX=0;entryY=0.5;entryDx=0;entryDy=0;" parent="1" target="3wfWG6ZCbJTdWurs8MAO-74" edge="1">
                    <mxGeometry width="50" height="50" relative="1" as="geometry">
                        <mxPoint x="120" y="655" as="sourcePoint"/>
                        <mxPoint x="230" y="670" as="targetPoint"/>
                    </mxGeometry>
                </mxCell>
                <mxCell id="10" value="" style="endArrow=classic;html=1;fontSize=14;entryX=0.5;entryY=0;entryDx=0;entryDy=0;exitX=0.5;exitY=1;exitDx=0;exitDy=0;" parent="1" source="LU_YdODJftrCfWnr0jXz-38" target="4" edge="1">
                    <mxGeometry width="50" height="50" relative="1" as="geometry">
                        <mxPoint x="120" y="680" as="sourcePoint"/>
                        <mxPoint x="130" y="610" as="targetPoint"/>
                    </mxGeometry>
                </mxCell>
                <mxCell id="11" value="" style="endArrow=classic;html=1;fontSize=14;entryX=0.5;entryY=0;entryDx=0;entryDy=0;exitX=0.5;exitY=1;exitDx=0;exitDy=0;" parent="1" source="4" target="LU_YdODJftrCfWnr0jXz-41" edge="1">
                    <mxGeometry width="50" height="50" relative="1" as="geometry">
                        <mxPoint x="410" y="850" as="sourcePoint"/>
                        <mxPoint x="130" y="770" as="targetPoint"/>
                    </mxGeometry>
                </mxCell>
                <mxCell id="12" value="" style="group" parent="1" vertex="1" connectable="0">
                    <mxGeometry x="80" y="560" width="80" height="80" as="geometry"/>
                </mxCell>
                <mxCell id="LU_YdODJftrCfWnr0jXz-38" value="" style="ellipse;whiteSpace=wrap;html=1;aspect=fixed;fillColor=#e1d5e7;strokeColor=#9673a6;" parent="12" vertex="1">
                    <mxGeometry width="80" height="80" as="geometry"/>
                </mxCell>
                <mxCell id="LU_YdODJftrCfWnr0jXz-39" value="Mounted" style="text;html=1;strokeColor=none;fillColor=none;align=center;verticalAlign=middle;whiteSpace=wrap;rounded=0;fontSize=12;" parent="12" vertex="1">
                    <mxGeometry y="20" width="80" height="40" as="geometry"/>
                </mxCell>
                <mxCell id="13" value="" style="group" parent="1" vertex="1" connectable="0">
                    <mxGeometry x="80" y="880" width="80" height="80" as="geometry"/>
                </mxCell>
                <mxCell id="LU_YdODJftrCfWnr0jXz-41" value="" style="ellipse;whiteSpace=wrap;html=1;aspect=fixed;fillColor=#f8cecc;strokeColor=#b85450;" parent="13" vertex="1">
                    <mxGeometry width="80" height="80" as="geometry"/>
                </mxCell>
                <mxCell id="LU_YdODJftrCfWnr0jXz-42" value="Unmounted" style="text;html=1;strokeColor=none;fillColor=none;align=center;verticalAlign=middle;whiteSpace=wrap;rounded=0;fontSize=12;" parent="13" vertex="1">
                    <mxGeometry y="20" width="80" height="40" as="geometry"/>
                </mxCell>
                <mxCell id="18" value="" style="endArrow=classic;dashed=1;html=1;endFill=1;entryX=0;entryY=0.5;entryDx=0;entryDy=0;" parent="1" target="16" edge="1">
                    <mxGeometry width="50" height="50" relative="1" as="geometry">
                        <mxPoint x="120" y="975" as="sourcePoint"/>
                        <mxPoint x="180" y="1011" as="targetPoint"/>
                    </mxGeometry>
                </mxCell>
                <mxCell id="33" value="" style="group" parent="1" vertex="1" connectable="0">
                    <mxGeometry x="350" y="960" width="100" height="30" as="geometry"/>
                </mxCell>
                <mxCell id="16" value="" style="rounded=1;whiteSpace=wrap;html=1;fillColor=#f5f5f5;strokeColor=#666666;fontColor=#333333;" parent="33" vertex="1">
                    <mxGeometry width="100" height="30" as="geometry"/>
                </mxCell>
                <mxCell id="26" value="cleanup()" style="text;html=1;strokeColor=none;fillColor=none;align=center;verticalAlign=middle;whiteSpace=wrap;rounded=0;dashed=1;" parent="33" vertex="1">
                    <mxGeometry x="29.74000000000001" y="5" width="60" height="20" as="geometry"/>
                </mxCell>
                <mxCell id="31" value="" style="shape=image;verticalLabelPosition=bottom;labelBackgroundColor=#ffffff;verticalAlign=top;aspect=fixed;imageAspect=0;image=data:image/svg+xml,PHN2ZyB4bWxucz0iaHR0cDovL3d3dy53My5vcmcvMjAwMC9zdmciIHhtbG5zOnhsaW5rPSJodHRwOi8vd3d3LnczLm9yZy8xOTk5L3hsaW5rIiB2ZXJzaW9uPSIxLjEiIHg9IjBweCIgeT0iMHB4IiB2aWV3Qm94PSI2OC40NTAwNTAzNTQwMDM5IDEwLjEzOTYxNzkxOTkyMTg3NSA4NjMuMTcxODc1IDk3OS44MjY0MTYwMTU2MjUiIGVuYWJsZS1iYWNrZ3JvdW5kPSJuZXcgMCAwIDEwMDAgMTAwMCIgeG1sOnNwYWNlPSJwcmVzZXJ2ZSIgd2lkdGg9Ijg2My4xNzE4NzUiIGhlaWdodD0iOTc5LjgyNjQxNjAxNTYyNSI+CjxtZXRhZGF0YT4gU3ZnIFZlY3RvciBJY29ucyA6IGh0dHA6Ly93d3cub25saW5ld2ViZm9udHMuY29tL2ljb24gPC9tZXRhZGF0YT4KPGc+PHBhdGggZD0iTTU5OSw3NTUuNWMtNS42LDIyLjMtMzQuMSw3MS4xLTc5LjUsMTM2LjljMTIuNCwyLjksMjQuMyw2LjEsMzYuNCw4LjNjMjIsNCw0NC4xLDcuMSw2Ni4xLDExLjFjNy4yLDEuMywxMC45LTEuMywxNC43LTdjNDQuMi02NS44LDc5LjktMTM2LjEsMTA5LjgtMjA5LjNjMTEuNy0yOC43LDIxLjctNTgsMzIuNS04N2MxLjEtMywyLjItNS45LDMuNS05LjRjMjMuNyw4LjIsNDYuOSwxNi4yLDcxLjEsMjQuNWMtNC4zLDEyLjctOC4zLDI0LjgtMTIuNiwzNi43Yy0zNi40LDEwMS4xLTgxLjcsMTk3LjgtMTQyLjEsMjg3Yy01LDcuNC0xMC43LDE0LjQtMTUuNiwyMS44Yy0xMS40LDE3LjEtMjcuMywyMi40LTQ3LjIsMjAuNWMtNzYuOC03LjMtMTUxLjMtMjQuOC0yMjMuNC01MS45Yy0xMzEuMi00OS40LTI0NC4yLTEyNS0zMzMuNy0yMzRjLTEwLjctMTMuMS0xMy44LTI3LjUtNi44LTQyLjljNi44LTE0LjgsMTkuNy0yMS41LDM1LjYtMjEuN2M2OC4yLTAuOSwxMzMuOS0xNC42LDE5Ny41LTM4LjZjNTcuNS0yMS43LDEwOS45LTUxLjksMTUwLjMtOTkuNWMxMS43LTEzLjgsMjEuMi0yOS40LDMyLjMtNDVjMjAuOCwxMS43LDQyLjIsMjMuOCw2NS43LDM3Yy0xMi4yLDE3LjYtMjMsMzUuMy0zNS44LDUxLjRjLTMxLjIsMzkuNS03MC42LDY5LjQtMTE0LjIsOTMuN2MtNjUuOCwzNi42LTEzNi45LDU3LjctMjEwLjksNjkuN2MtMS41LDAuMi0yLjksMC41LTYuNSwxLjJjMTAuNiw5LjcsMTkuNSwxOC44LDI5LjMsMjYuN2MxOC40LDE0LjksMzcuMSwyOS40LDU2LjIsNDMuNGMzLjcsMi43LDEwLjIsMy45LDE0LjgsMi45YzM4LTguNiw3Mi44LTIzLjgsMTAyLTUwLjhjLTIuNSwxMy4zLTI2LjUsNDctNjAuMiw4NC42YzIxLjIsMTAuNSw0Mi41LDE5LjgsNjIuNSwzMS41YzI1LjgsMTUuMiw1MC41LDExLDc1LjgsMC4xYzQyLjgtMTguNSw3OS41LTQ2LjEsMTE0LjYtNzYuMkM1ODYuOCw3NjYuNCw1OTIuMyw3NjEuNCw1OTksNzU1LjVMNTk5LDc1NS41TDU5OSw3NTUuNXogTTg3Ni4zLDU2MC40Qzc1Ni4yLDUwNyw2MzcsNDUzLjksNTE2LjksNDAwLjVjOS45LTIzLjEsMjUuNS00MC42LDQ2LjYtNTNjMzUuMi0yMC43LDcyLTIzLjEsMTA5LjMtNi44YzQ4LDIwLjksOTYsNDIsMTQzLjUsNjRjNTUuOCwyNS45LDgyLjEsODQsNjUuMSwxNDEuN0M4ODAsNTUwLjksODc4LjIsNTU1LjIsODc2LjMsNTYwLjRMODc2LjMsNTYwLjRMODc2LjMsNTYwLjR6IE04MjMsMzUxLjFjLTM3LjgtMTYuOC03NS4yLTMzLjUtMTEyLjUtNTAuMWMtMC44LTAuNC0xLjMtMS4yLTIuNC0yLjJjMS40LTIuOCwyLjctNS43LDQuMi04LjRjNDYuOC04Ny43LDkzLjUtMTc1LjMsMTQwLjMtMjYzYzcuOC0xNC43LDE2LjktMTkuMSwzMy44LTE2LjZjMTUuNSwyLjMsMjguNiw4LjksMzguNywyMWM2LjYsOCw4LjMsMTYuNyw0LjYsMjYuOGMtMzQuOSw5Ni02OS42LDE5Mi4yLTEwNC40LDI4OC4yQzgyNC44LDM0Ny44LDgyNC4xLDM0OC45LDgyMywzNTEuMUw4MjMsMzUxLjFMODIzLDM1MS4xeiIvPjwvZz4KPC9zdmc+;" parent="33" vertex="1">
                    <mxGeometry x="11.740000000000009" y="4" width="20" height="22.7" as="geometry"/>
                </mxCell>
                <mxCell id="38" value="" style="group" parent="1" vertex="1" connectable="0">
                    <mxGeometry x="190" y="683" width="70" height="70" as="geometry"/>
                </mxCell>
                <mxCell id="49" value="" style="group" parent="1" vertex="1" connectable="0">
                    <mxGeometry x="350" y="730" width="100" height="30" as="geometry"/>
                </mxCell>
                <mxCell id="50" value="" style="rounded=1;whiteSpace=wrap;html=1;fillColor=#f5f5f5;strokeColor=#666666;fontColor=#333333;" parent="49" vertex="1">
                    <mxGeometry width="100" height="30" as="geometry"/>
                </mxCell>
                <mxCell id="51" value="cleanup()" style="text;html=1;strokeColor=none;fillColor=none;align=center;verticalAlign=middle;whiteSpace=wrap;rounded=0;dashed=1;" parent="49" vertex="1">
                    <mxGeometry x="29.74000000000001" y="5" width="60" height="20" as="geometry"/>
                </mxCell>
                <mxCell id="52" value="" style="shape=image;verticalLabelPosition=bottom;labelBackgroundColor=#ffffff;verticalAlign=top;aspect=fixed;imageAspect=0;image=data:image/svg+xml,PHN2ZyB4bWxucz0iaHR0cDovL3d3dy53My5vcmcvMjAwMC9zdmciIHhtbG5zOnhsaW5rPSJodHRwOi8vd3d3LnczLm9yZy8xOTk5L3hsaW5rIiB2ZXJzaW9uPSIxLjEiIHg9IjBweCIgeT0iMHB4IiB2aWV3Qm94PSI2OC40NTAwNTAzNTQwMDM5IDEwLjEzOTYxNzkxOTkyMTg3NSA4NjMuMTcxODc1IDk3OS44MjY0MTYwMTU2MjUiIGVuYWJsZS1iYWNrZ3JvdW5kPSJuZXcgMCAwIDEwMDAgMTAwMCIgeG1sOnNwYWNlPSJwcmVzZXJ2ZSIgd2lkdGg9Ijg2My4xNzE4NzUiIGhlaWdodD0iOTc5LjgyNjQxNjAxNTYyNSI+CjxtZXRhZGF0YT4gU3ZnIFZlY3RvciBJY29ucyA6IGh0dHA6Ly93d3cub25saW5ld2ViZm9udHMuY29tL2ljb24gPC9tZXRhZGF0YT4KPGc+PHBhdGggZD0iTTU5OSw3NTUuNWMtNS42LDIyLjMtMzQuMSw3MS4xLTc5LjUsMTM2LjljMTIuNCwyLjksMjQuMyw2LjEsMzYuNCw4LjNjMjIsNCw0NC4xLDcuMSw2Ni4xLDExLjFjNy4yLDEuMywxMC45LTEuMywxNC43LTdjNDQuMi02NS44LDc5LjktMTM2LjEsMTA5LjgtMjA5LjNjMTEuNy0yOC43LDIxLjctNTgsMzIuNS04N2MxLjEtMywyLjItNS45LDMuNS05LjRjMjMuNyw4LjIsNDYuOSwxNi4yLDcxLjEsMjQuNWMtNC4zLDEyLjctOC4zLDI0LjgtMTIuNiwzNi43Yy0zNi40LDEwMS4xLTgxLjcsMTk3LjgtMTQyLjEsMjg3Yy01LDcuNC0xMC43LDE0LjQtMTUuNiwyMS44Yy0xMS40LDE3LjEtMjcuMywyMi40LTQ3LjIsMjAuNWMtNzYuOC03LjMtMTUxLjMtMjQuOC0yMjMuNC01MS45Yy0xMzEuMi00OS40LTI0NC4yLTEyNS0zMzMuNy0yMzRjLTEwLjctMTMuMS0xMy44LTI3LjUtNi44LTQyLjljNi44LTE0LjgsMTkuNy0yMS41LDM1LjYtMjEuN2M2OC4yLTAuOSwxMzMuOS0xNC42LDE5Ny41LTM4LjZjNTcuNS0yMS43LDEwOS45LTUxLjksMTUwLjMtOTkuNWMxMS43LTEzLjgsMjEuMi0yOS40LDMyLjMtNDVjMjAuOCwxMS43LDQyLjIsMjMuOCw2NS43LDM3Yy0xMi4yLDE3LjYtMjMsMzUuMy0zNS44LDUxLjRjLTMxLjIsMzkuNS03MC42LDY5LjQtMTE0LjIsOTMuN2MtNjUuOCwzNi42LTEzNi45LDU3LjctMjEwLjksNjkuN2MtMS41LDAuMi0yLjksMC41LTYuNSwxLjJjMTAuNiw5LjcsMTkuNSwxOC44LDI5LjMsMjYuN2MxOC40LDE0LjksMzcuMSwyOS40LDU2LjIsNDMuNGMzLjcsMi43LDEwLjIsMy45LDE0LjgsMi45YzM4LTguNiw3Mi44LTIzLjgsMTAyLTUwLjhjLTIuNSwxMy4zLTI2LjUsNDctNjAuMiw4NC42YzIxLjIsMTAuNSw0Mi41LDE5LjgsNjIuNSwzMS41YzI1LjgsMTUuMiw1MC41LDExLDc1LjgsMC4xYzQyLjgtMTguNSw3OS41LTQ2LjEsMTE0LjYtNzYuMkM1ODYuOCw3NjYuNCw1OTIuMyw3NjEuNCw1OTksNzU1LjVMNTk5LDc1NS41TDU5OSw3NTUuNXogTTg3Ni4zLDU2MC40Qzc1Ni4yLDUwNyw2MzcsNDUzLjksNTE2LjksNDAwLjVjOS45LTIzLjEsMjUuNS00MC42LDQ2LjYtNTNjMzUuMi0yMC43LDcyLTIzLjEsMTA5LjMtNi44YzQ4LDIwLjksOTYsNDIsMTQzLjUsNjRjNTUuOCwyNS45LDgyLjEsODQsNjUuMSwxNDEuN0M4ODAsNTUwLjksODc4LjIsNTU1LjIsODc2LjMsNTYwLjRMODc2LjMsNTYwLjRMODc2LjMsNTYwLjR6IE04MjMsMzUxLjFjLTM3LjgtMTYuOC03NS4yLTMzLjUtMTEyLjUtNTAuMWMtMC44LTAuNC0xLjMtMS4yLTIuNC0yLjJjMS40LTIuOCwyLjctNS43LDQuMi04LjRjNDYuOC04Ny43LDkzLjUtMTc1LjMsMTQwLjMtMjYzYzcuOC0xNC43LDE2LjktMTkuMSwzMy44LTE2LjZjMTUuNSwyLjMsMjguNiw4LjksMzguNywyMWM2LjYsOCw4LjMsMTYuNyw0LjYsMjYuOGMtMzQuOSw5Ni02OS42LDE5Mi4yLTEwNC40LDI4OC4yQzgyNC44LDM0Ny44LDgyNC4xLDM0OC45LDgyMywzNTEuMUw4MjMsMzUxLjFMODIzLDM1MS4xeiIvPjwvZz4KPC9zdmc+;" parent="49" vertex="1">
                    <mxGeometry x="11.740000000000009" y="4" width="20" height="22.7" as="geometry"/>
                </mxCell>
                <mxCell id="56" value="" style="group" parent="1" vertex="1" connectable="0">
                    <mxGeometry x="350" y="850" width="101" height="30" as="geometry"/>
                </mxCell>
                <mxCell id="57" value="" style="rounded=1;whiteSpace=wrap;html=1;" parent="56" vertex="1">
                    <mxGeometry width="100" height="30" as="geometry"/>
                </mxCell>
                <mxCell id="58" value="callback()" style="text;html=1;strokeColor=none;fillColor=none;align=center;verticalAlign=middle;whiteSpace=wrap;rounded=0;fontSize=12;" parent="56" vertex="1">
                    <mxGeometry x="21" y="4" width="80" height="20" as="geometry"/>
                </mxCell>
                <mxCell id="59" value="" style="shape=image;verticalLabelPosition=bottom;labelBackgroundColor=#ffffff;verticalAlign=top;aspect=fixed;imageAspect=0;image=data:image/svg+xml,PHN2ZyB4bWxucz0iaHR0cDovL3d3dy53My5vcmcvMjAwMC9zdmciIHdpZHRoPSIyNCIgaGVpZ2h0PSIyMy45OTk5OTgwOTI2NTEzNjciIHZpZXdCb3g9Ii00Ljc2ODM3MTU4MjAzMTI1ZS03IC00Ljc2ODM3MTU4MjAzMTI1ZS03IDI0IDIzLjk5OTk5ODA5MjY1MTM2NyI+PHBhdGggZD0iTTI0IDEzLjYxNnYtMy4yMzJjLTEuNjUxLS41ODctMi42OTQtLjc1Mi0zLjIxOS0yLjAxOXYtLjAwMWMtLjUyNy0xLjI3MS4xLTIuMTM0Ljg0Ny0zLjcwN2wtMi4yODUtMi4yODVjLTEuNTYxLjc0Mi0yLjQzMyAxLjM3NS0zLjcwNy44NDdoLS4wMDFjLTEuMjY5LS41MjYtMS40MzUtMS41NzYtMi4wMTktMy4yMTloLTMuMjMyYy0uNTgyIDEuNjM1LS43NDkgMi42OTItMi4wMTkgMy4yMTloLS4wMDFjLTEuMjcxLjUyOC0yLjEzMi0uMDk4LTMuNzA3LS44NDdsLTIuMjg1IDIuMjg1Yy43NDUgMS41NjggMS4zNzUgMi40MzQuODQ3IDMuNzA3LS41MjcgMS4yNzEtMS41ODQgMS40MzgtMy4yMTkgMi4wMnYzLjIzMmMxLjYzMi41OCAyLjY5Mi43NDkgMy4yMTkgMi4wMTkuNTMgMS4yODItLjExNCAyLjE2Ni0uODQ3IDMuNzA3bDIuMjg1IDIuMjg2YzEuNTYyLS43NDMgMi40MzQtMS4zNzUgMy43MDctLjg0N2guMDAxYzEuMjcuNTI2IDEuNDM2IDEuNTc5IDIuMDE5IDMuMjE5aDMuMjMyYy41ODItMS42MzYuNzUtMi42OSAyLjAyNy0zLjIyMmguMDAxYzEuMjYyLS41MjQgMi4xMi4xMDEgMy42OTguODUxbDIuMjg1LTIuMjg2Yy0uNzQ0LTEuNTYzLTEuMzc1LTIuNDMzLS44NDgtMy43MDYuNTI3LTEuMjcxIDEuNTg4LTEuNDQgMy4yMjEtMi4wMjF6bS0xMiAyLjM4NGMtMi4yMDkgMC00LTEuNzkxLTQtNHMxLjc5MS00IDQtNCA0IDEuNzkxIDQgNC0xLjc5MSA0LTQgNHoiLz48L3N2Zz4=;" parent="56" vertex="1">
                    <mxGeometry x="14" y="6.5" width="17" height="17" as="geometry"/>
                </mxCell>
                <mxCell id="60" value="" style="endArrow=classic;dashed=1;html=1;endFill=1;entryX=0;entryY=0.5;entryDx=0;entryDy=0;exitX=0.906;exitY=0.206;exitDx=0;exitDy=0;exitPerimeter=0;" parent="1" source="48" target="50" edge="1">
                    <mxGeometry width="50" height="50" relative="1" as="geometry">
                        <mxPoint x="360" y="690" as="sourcePoint"/>
                        <mxPoint x="230" y="665" as="targetPoint"/>
                    </mxGeometry>
                </mxCell>
                <mxCell id="36" value="&lt;i&gt;deps&lt;/i&gt; updated?" style="text;html=1;strokeColor=none;fillColor=none;align=center;verticalAlign=middle;whiteSpace=wrap;rounded=0;" parent="1" vertex="1">
                    <mxGeometry x="206" y="704" width="40" height="20" as="geometry"/>
                </mxCell>
                <mxCell id="35" value="" style="rhombus;whiteSpace=wrap;html=1;" parent="1" vertex="1">
                    <mxGeometry x="190" y="683" width="70" height="70" as="geometry"/>
                </mxCell>
                <mxCell id="37" value="Yes" style="text;html=1;align=center;verticalAlign=middle;whiteSpace=wrap;rounded=0;fillColor=#ffffff;rotation=0;" parent="1" vertex="1">
                    <mxGeometry x="259" y="720" width="31" height="14.12" as="geometry"/>
                </mxCell>
                <mxCell id="62" value="" style="endArrow=classic;dashed=1;html=1;endFill=1;entryX=0;entryY=0.5;entryDx=0;entryDy=0;exitX=0.785;exitY=0.914;exitDx=0;exitDy=0;exitPerimeter=0;" parent="1" source="48" target="57" edge="1">
                    <mxGeometry width="50" height="50" relative="1" as="geometry">
                        <mxPoint x="295.10407640085623" y="744.8959235991435" as="sourcePoint"/>
                        <mxPoint x="346" y="745" as="targetPoint"/>
                    </mxGeometry>
                </mxCell>
                <mxCell id="42" value="&lt;i&gt;deps&lt;/i&gt; changed?" style="text;html=1;strokeColor=none;fillColor=none;align=center;verticalAlign=middle;whiteSpace=wrap;rounded=0;fontSize=12;" parent="1" vertex="1">
                    <mxGeometry x="196" y="692" width="60" height="40" as="geometry"/>
                </mxCell>
                <mxCell id="63" value="" style="endArrow=classic;html=1;fontSize=14;exitX=0.5;exitY=1;exitDx=0;exitDy=0;entryX=0.5;entryY=0;entryDx=0;entryDy=0;" parent="1" source="35" target="65" edge="1">
                    <mxGeometry width="50" height="50" relative="1" as="geometry">
                        <mxPoint x="130" y="650" as="sourcePoint"/>
                        <mxPoint x="440" y="810" as="targetPoint"/>
                    </mxGeometry>
                </mxCell>
                <mxCell id="64" value="No" style="text;html=1;strokeColor=none;align=center;verticalAlign=middle;whiteSpace=wrap;rounded=0;fillColor=#ffffff;" parent="1" vertex="1">
                    <mxGeometry x="212" y="756" width="25" height="14" as="geometry"/>
                </mxCell>
                <mxCell id="65" value="" style="shape=ellipse;html=1;fontSize=14;strokeColor=#666666;fontColor=#333333;fillColor=#000000;" parent="1" vertex="1">
                    <mxGeometry x="220" y="805" width="10" height="10" as="geometry"/>
                </mxCell>
                <mxCell id="68" value="" style="ellipse;whiteSpace=wrap;html=1;fillColor=#d5e8d4;strokeColor=#82b366;" parent="1" vertex="1">
                    <mxGeometry x="260" y="774" width="120" height="51.5" as="geometry"/>
                </mxCell>
                <mxCell id="69" value="Re-render and commit changes to DOM" style="text;html=1;strokeColor=none;fillColor=none;align=center;verticalAlign=middle;whiteSpace=wrap;rounded=0;fontSize=10;" parent="1" vertex="1">
                    <mxGeometry x="283" y="785" width="90" height="30" as="geometry"/>
                </mxCell>
                <mxCell id="70" value="" style="shape=image;verticalLabelPosition=bottom;labelBackgroundColor=#ffffff;verticalAlign=top;aspect=fixed;imageAspect=0;image=data:image/svg+xml,PHN2ZyB4bWxucz0iaHR0cDovL3d3dy53My5vcmcvMjAwMC9zdmciIHZpZXdCb3g9IjIzLjk5OTU4MDM4MzMwMDc4IDEyLjAwODgzNzY5OTg5MDEzNyA0OC4wMDA1MDM1NDAwMzkwNiA3MS45OTE1MzkwMDE0NjQ4NCIgd2lkdGg9IjQ4LjAwMDUwMzU0MDAzOTA2IiBoZWlnaHQ9IjcxLjk5MTUzOTAwMTQ2NDg0Ij48dGl0bGUvPjxwYXRoIGQ9Ik02OS44NDM3LDQzLjM4NzYsMzMuODQyMiwxMy4zODYzYTYuMDAzNSw2LjAwMzUsMCwwLDAtNy42ODc4LDkuMjIzbDMwLjQ3LDI1LjM5LTMwLjQ3LDI1LjM5YTYuMDAzNSw2LjAwMzUsMCwwLDAsNy42ODc4LDkuMjIzMUw2OS44NDM3LDUyLjYxMDZhNi4wMDkxLDYuMDA5MSwwLDAsMCwwLTkuMjIzWiIvPjwvc3ZnPg==;rotation=-180;" parent="1" vertex="1">
                    <mxGeometry x="218" y="874" width="8" height="12" as="geometry"/>
                </mxCell>
                <mxCell id="71" value="" style="shape=image;verticalLabelPosition=bottom;labelBackgroundColor=#ffffff;verticalAlign=top;aspect=fixed;imageAspect=0;image=data:image/svg+xml,PHN2ZyB4bWxucz0iaHR0cDovL3d3dy53My5vcmcvMjAwMC9zdmciIHZpZXdCb3g9IjIzLjk5OTU4MDM4MzMwMDc4IDEyLjAwODgzNzY5OTg5MDEzNyA0OC4wMDA1MDM1NDAwMzkwNiA3MS45OTE1MzkwMDE0NjQ4NCIgd2lkdGg9IjQ4LjAwMDUwMzU0MDAzOTA2IiBoZWlnaHQ9IjcxLjk5MTUzOTAwMTQ2NDg0Ij48dGl0bGUvPjxwYXRoIGQ9Ik02OS44NDM3LDQzLjM4NzYsMzMuODQyMiwxMy4zODYzYTYuMDAzNSw2LjAwMzUsMCwwLDAtNy42ODc4LDkuMjIzbDMwLjQ3LDI1LjM5LTMwLjQ3LDI1LjM5YTYuMDAzNSw2LjAwMzUsMCwwLDAsNy42ODc4LDkuMjIzMUw2OS44NDM3LDUyLjYxMDZhNi4wMDkxLDYuMDA5MSwwLDAsMCwwLTkuMjIzWiIvPjwvc3ZnPg==;rotation=-45;" parent="1" vertex="1">
                    <mxGeometry x="160" y="730" width="8" height="12" as="geometry"/>
                </mxCell>
                <mxCell id="73" value="" style="verticalLabelPosition=bottom;verticalAlign=top;html=1;shape=mxgraph.basic.flash;fontSize=8;fillColor=#ffffff;" parent="1" vertex="1">
                    <mxGeometry x="271.5" y="789" width="10" height="20" as="geometry"/>
                </mxCell>
                <mxCell id="3wfWG6ZCbJTdWurs8MAO-73" value="" style="group" parent="1" vertex="1" connectable="0">
                    <mxGeometry x="350" y="640" width="101" height="30" as="geometry"/>
                </mxCell>
                <mxCell id="3wfWG6ZCbJTdWurs8MAO-74" value="" style="rounded=1;whiteSpace=wrap;html=1;" parent="3wfWG6ZCbJTdWurs8MAO-73" vertex="1">
                    <mxGeometry width="100" height="30" as="geometry"/>
                </mxCell>
                <mxCell id="3wfWG6ZCbJTdWurs8MAO-75" value="callback()" style="text;html=1;strokeColor=none;fillColor=none;align=center;verticalAlign=middle;whiteSpace=wrap;rounded=0;fontSize=12;" parent="3wfWG6ZCbJTdWurs8MAO-73" vertex="1">
                    <mxGeometry x="21" y="4" width="80" height="20" as="geometry"/>
                </mxCell>
                <mxCell id="3wfWG6ZCbJTdWurs8MAO-76" value="" style="shape=image;verticalLabelPosition=bottom;labelBackgroundColor=#ffffff;verticalAlign=top;aspect=fixed;imageAspect=0;image=data:image/svg+xml,PHN2ZyB4bWxucz0iaHR0cDovL3d3dy53My5vcmcvMjAwMC9zdmciIHdpZHRoPSIyNCIgaGVpZ2h0PSIyMy45OTk5OTgwOTI2NTEzNjciIHZpZXdCb3g9Ii00Ljc2ODM3MTU4MjAzMTI1ZS03IC00Ljc2ODM3MTU4MjAzMTI1ZS03IDI0IDIzLjk5OTk5ODA5MjY1MTM2NyI+PHBhdGggZD0iTTI0IDEzLjYxNnYtMy4yMzJjLTEuNjUxLS41ODctMi42OTQtLjc1Mi0zLjIxOS0yLjAxOXYtLjAwMWMtLjUyNy0xLjI3MS4xLTIuMTM0Ljg0Ny0zLjcwN2wtMi4yODUtMi4yODVjLTEuNTYxLjc0Mi0yLjQzMyAxLjM3NS0zLjcwNy44NDdoLS4wMDFjLTEuMjY5LS41MjYtMS40MzUtMS41NzYtMi4wMTktMy4yMTloLTMuMjMyYy0uNTgyIDEuNjM1LS43NDkgMi42OTItMi4wMTkgMy4yMTloLS4wMDFjLTEuMjcxLjUyOC0yLjEzMi0uMDk4LTMuNzA3LS44NDdsLTIuMjg1IDIuMjg1Yy43NDUgMS41NjggMS4zNzUgMi40MzQuODQ3IDMuNzA3LS41MjcgMS4yNzEtMS41ODQgMS40MzgtMy4yMTkgMi4wMnYzLjIzMmMxLjYzMi41OCAyLjY5Mi43NDkgMy4yMTkgMi4wMTkuNTMgMS4yODItLjExNCAyLjE2Ni0uODQ3IDMuNzA3bDIuMjg1IDIuMjg2YzEuNTYyLS43NDMgMi40MzQtMS4zNzUgMy43MDctLjg0N2guMDAxYzEuMjcuNTI2IDEuNDM2IDEuNTc5IDIuMDE5IDMuMjE5aDMuMjMyYy41ODItMS42MzYuNzUtMi42OSAyLjAyNy0zLjIyMmguMDAxYzEuMjYyLS41MjQgMi4xMi4xMDEgMy42OTguODUxbDIuMjg1LTIuMjg2Yy0uNzQ0LTEuNTYzLTEuMzc1LTIuNDMzLS44NDgtMy43MDYuNTI3LTEuMjcxIDEuNTg4LTEuNDQgMy4yMjEtMi4wMjF6bS0xMiAyLjM4NGMtMi4yMDkgMC00LTEuNzkxLTQtNHMxLjc5MS00IDQtNCA0IDEuNzkxIDQgNC0xLjc5MSA0LTQgNHoiLz48L3N2Zz4=;" parent="3wfWG6ZCbJTdWurs8MAO-73" vertex="1">
                    <mxGeometry x="14" y="6.5" width="17" height="17" as="geometry"/>
                </mxCell>
            </root>
        </mxGraphModel>
    </diagram>
</mxfile>